REM DIRINDEX 1\2,1\3,1\4,1\5
REM DIRNAME folder01,folder02,folder03,folder04,folder05
TITLE ""
FILE "P1Q_t_0630-0639.mp3" MP3
  TRACK 01 AUDIO
    TITLE "3:cjc005_2793"
    INDEX 01 00:00:00
  TRACK 02 AUDIO
    TITLE "0:"
    INDEX 01 00:01:05
  TRACK 03 AUDIO
    TITLE "4:cjc005_2794"
    INDEX 01 00:01:36
  TRACK 04 AUDIO
    TITLE "0:"
    INDEX 01 00:02:59
  TRACK 05 AUDIO
    TITLE "5:cjc005_2795"
    INDEX 01 00:03:14
  TRACK 06 AUDIO
    TITLE "0:"
    INDEX 01 00:07:21
  TRACK 07 AUDIO
    TITLE "3:cjc005_2796"
    INDEX 01 00:07:72
  TRACK 08 AUDIO
    TITLE "0:"
    INDEX 01 00:09:14
  TRACK 09 AUDIO
    TITLE "4:cjc005_2797"
    INDEX 01 00:09:44
  TRACK 10 AUDIO
    TITLE "0:"
    INDEX 01 00:11:15
  TRACK 11 AUDIO
    TITLE "5:cjc005_2798"
    INDEX 01 00:11:42
  TRACK 12 AUDIO
    TITLE "0:"
    INDEX 01 00:15:11
  TRACK 13 AUDIO
    TITLE "3:cjc005_2799"
    INDEX 01 00:15:68
  TRACK 14 AUDIO
    TITLE "0:"
    INDEX 01 00:16:65
  TRACK 15 AUDIO
    TITLE "4:cjc005_2800"
    INDEX 01 00:17:21
  TRACK 16 AUDIO
    TITLE "0:"
    INDEX 01 00:18:35
  TRACK 17 AUDIO
    TITLE "5:cjc005_2801"
    INDEX 01 00:18:66
  TRACK 18 AUDIO
    TITLE "0:"
    INDEX 01 00:22:72
  TRACK 19 AUDIO
    TITLE "3:cjc005_2802"
    INDEX 01 00:23:55
  TRACK 20 AUDIO
    TITLE "0:"
    INDEX 01 00:24:59
  TRACK 21 AUDIO
    TITLE "4:cjc005_2803"
    INDEX 01 00:25:07
  TRACK 22 AUDIO
    TITLE "0:"
    INDEX 01 00:26:60
  TRACK 23 AUDIO
    TITLE "5:cjc005_2804"
    INDEX 01 00:27:08
  TRACK 24 AUDIO
    TITLE "0:"
    INDEX 01 00:31:63
  TRACK 25 AUDIO
    TITLE "3:cjc005_2805"
    INDEX 01 00:32:45
  TRACK 26 AUDIO
    TITLE "0:"
    INDEX 01 00:33:62
  TRACK 27 AUDIO
    TITLE "4:cjc005_2806"
    INDEX 01 00:34:14
  TRACK 28 AUDIO
    TITLE "0:"
    INDEX 01 00:35:45
  TRACK 29 AUDIO
    TITLE "5:cjc005_2807"
    INDEX 01 00:35:66
  TRACK 30 AUDIO
    TITLE "0:"
    INDEX 01 00:39:21
  TRACK 31 AUDIO
    TITLE "3:cjc005_2808"
    INDEX 01 00:40:03
  TRACK 32 AUDIO
    TITLE "0:"
    INDEX 01 00:41:26
  TRACK 33 AUDIO
    TITLE "4:cjc005_2809"
    INDEX 01 00:41:53
  TRACK 34 AUDIO
    TITLE "0:"
    INDEX 01 00:43:29
  TRACK 35 AUDIO
    TITLE "5:cjc005_2810"
    INDEX 01 00:43:48
  TRACK 36 AUDIO
    TITLE "0:"
    INDEX 01 00:47:56
  TRACK 37 AUDIO
    TITLE "3:cjc005_2811"
    INDEX 01 00:48:40
  TRACK 38 AUDIO
    TITLE "0:"
    INDEX 01 00:49:53
  TRACK 39 AUDIO
    TITLE "4:cjc005_2812"
    INDEX 01 00:49:74
  TRACK 40 AUDIO
    TITLE "0:"
    INDEX 01 00:51:11
  TRACK 41 AUDIO
    TITLE "5:cjc005_2813"
    INDEX 01 00:51:32
  TRACK 42 AUDIO
    TITLE "0:"
    INDEX 01 00:54:68
  TRACK 43 AUDIO
    TITLE "3:cjc005_2814"
    INDEX 01 00:55:16
  TRACK 44 AUDIO
    TITLE "0:"
    INDEX 01 00:56:35
  TRACK 45 AUDIO
    TITLE "4:cjc005_2815"
    INDEX 01 00:56:63
  TRACK 46 AUDIO
    TITLE "0:"
    INDEX 01 00:58:66
  TRACK 47 AUDIO
    TITLE "5:cjc005_2816"
    INDEX 01 00:59:18
  TRACK 48 AUDIO
    TITLE "0:"
    INDEX 01 01:02:69
  TRACK 49 AUDIO
    TITLE "3:cjc005_2817"
    INDEX 01 01:03:45
  TRACK 50 AUDIO
    TITLE "0:"
    INDEX 01 01:04:54
  TRACK 51 AUDIO
    TITLE "4:cjc005_2818"
    INDEX 01 01:05:03
  TRACK 52 AUDIO
    TITLE "0:"
    INDEX 01 01:06:51
  TRACK 53 AUDIO
    TITLE "5:cjc005_2819"
    INDEX 01 01:07:00
  TRACK 54 AUDIO
    TITLE "0:"
    INDEX 01 01:10:14
  TRACK 55 AUDIO
    TITLE "3:cjc005_2820"
    INDEX 01 01:10:67
  TRACK 56 AUDIO
    TITLE "0:"
    INDEX 01 01:12:03
  TRACK 57 AUDIO
    TITLE "4:cjc005_2821"
    INDEX 01 01:12:26
  TRACK 58 AUDIO
    TITLE "0:"
    INDEX 01 01:13:57
  TRACK 59 AUDIO
    TITLE "5:cjc005_2822"
    INDEX 01 01:14:08
  TRACK 60 AUDIO
    TITLE "0:"
    INDEX 01 01:17:06
